<svg width="345" height="271" viewBox="0 0 345 271" fill="none" xmlns="http://www.w3.org/2000/svg">
<g clip-path="url(#clip0_571_203)">
<path d="M56.0371 218.199H345.011V270.84H108.678C79.6052 270.84 56.0371 247.272 56.0371 218.199Z" fill="#4D61D1"/>
<rect width="32.3651" height="172.046" transform="translate(312.645 46.1533)" fill="#4D61D1"/>
<g filter="url(#filter0_d_571_203)">
<g filter="url(#filter1_d_571_203)">
<path d="M304.525 0H14.3436C6.42183 0 0 6.92347 0 15.464V213.522C0 222.063 6.42183 228.986 14.3436 228.986H304.525C312.446 228.986 318.868 222.063 318.868 213.522V15.464C318.868 6.92347 312.446 0 304.525 0Z" fill="black"/>
</g>
<path d="M304.525 0H14.3436C6.42183 0 0 6.92347 0 15.464V213.522C0 222.063 6.42183 228.986 14.3436 228.986H304.525C312.446 228.986 318.868 222.063 318.868 213.522V15.464C318.868 6.92347 312.446 0 304.525 0Z" fill="#777777"/>
<path d="M304.099 1.18945H14.8944C7.27737 1.18945 1.10254 7.84663 1.10254 16.0587V213.442C1.10254 221.654 7.27737 228.311 14.8944 228.311H304.099C311.716 228.311 317.891 221.654 317.891 213.442V16.0587C317.891 7.84663 311.716 1.18945 304.099 1.18945Z" fill="url(#paint0_linear_571_203)"/>
<path opacity="0.1" d="M287.143 9.69629H32.565C31.0416 9.69629 29.8066 11.0277 29.8066 12.6701V217.126C29.8066 218.768 31.0416 220.099 32.565 220.099H287.143C288.666 220.099 289.901 218.768 289.901 217.126V12.6701C289.901 11.0277 288.666 9.69629 287.143 9.69629Z" fill="#2A2A2A"/>
<path d="M302.887 11.4805H16.0159C13.5785 11.4805 11.6025 13.6108 11.6025 16.2386V212.512C11.6025 215.14 13.5785 217.271 16.0159 217.271H302.887C305.324 217.271 307.3 215.14 307.3 212.512V16.2386C307.3 13.6108 305.324 11.4805 302.887 11.4805Z" fill="#E8EAF6"/>
<mask id="mask0_571_203" style="mask-type:luminance" maskUnits="userSpaceOnUse" x="11" y="11" width="297" height="207">
<path d="M302.888 11.4795H16.0169C13.5795 11.4795 11.6035 13.6098 11.6035 16.2376V212.511C11.6035 215.139 13.5795 217.27 16.0169 217.27H302.888C305.325 217.27 307.301 215.139 307.301 212.511V16.2376C307.301 13.6098 305.325 11.4795 302.888 11.4795Z" fill="white"/>
</mask>
<g mask="url(#mask0_571_203)">
<path fill-rule="evenodd" clip-rule="evenodd" d="M9.65332 11.5977H311.42V46.689H9.65332V11.5977Z" fill="#5267DF"/>
<path opacity="0.245" d="M32.8248 38.9584C37.6998 38.9584 41.6516 34.6978 41.6516 29.4421C41.6516 24.1864 37.6998 19.9258 32.8248 19.9258C27.9499 19.9258 23.998 24.1864 23.998 29.4421C23.998 34.6978 27.9499 38.9584 32.8248 38.9584Z" fill="white"/>
<path opacity="0.104" d="M287.147 38.9584C292.022 38.9584 295.974 34.6978 295.974 29.4421C295.974 24.1864 292.022 19.9258 287.147 19.9258C282.272 19.9258 278.32 24.1864 278.32 29.4421C278.32 34.6978 282.272 38.9584 287.147 38.9584Z" fill="white"/>
<path opacity="0.75" d="M114.472 23.4922H51.5808C50.6668 23.4922 49.9258 24.291 49.9258 25.2765C49.9258 26.2619 50.6668 27.0608 51.5808 27.0608H114.472C115.386 27.0608 116.127 26.2619 116.127 25.2765C116.127 24.291 115.386 23.4922 114.472 23.4922Z" fill="white"/>
<path opacity="0.25" d="M83.578 31.8203H51.5808C50.6668 31.8203 49.9258 32.6192 49.9258 33.6046C49.9258 34.5901 50.6668 35.3889 51.5808 35.3889H83.578C84.492 35.3889 85.233 34.5901 85.233 33.6046C85.233 32.6192 84.492 31.8203 83.578 31.8203Z" fill="white"/>
</g>
<mask id="mask1_571_203" style="mask-type:luminance" maskUnits="userSpaceOnUse" x="11" y="11" width="297" height="207">
<path d="M302.888 11.4795H16.0169C13.5795 11.4795 11.6035 13.6098 11.6035 16.2376V212.511C11.6035 215.139 13.5795 217.27 16.0169 217.27H302.888C305.325 217.27 307.301 215.139 307.301 212.511V16.2376C307.301 13.6098 305.325 11.4795 302.888 11.4795Z" fill="white"/>
</mask>
<g mask="url(#mask1_571_203)">
<path d="M182.623 66.793H47.4622C45.0248 66.793 43.0488 68.9233 43.0488 71.5511V249.982C43.0488 252.61 45.0248 254.74 47.4622 254.74H182.623C185.06 254.74 187.036 252.61 187.036 249.982V71.5511C187.036 68.9233 185.06 66.793 182.623 66.793Z" fill="white"/>
<path d="M271.995 66.793H210.207C207.77 66.793 205.794 68.9233 205.794 71.5511V249.982C205.794 252.61 207.77 254.74 210.207 254.74H271.995C274.432 254.74 276.408 252.61 276.408 249.982V71.5511C276.408 68.9233 274.432 66.793 271.995 66.793Z" fill="white"/>
<path opacity="0.5" d="M150.883 89.5107H87.9919C87.0779 89.5107 86.3369 90.3096 86.3369 91.295C86.3369 92.2805 87.0779 93.0794 87.9919 93.0794H150.883C151.797 93.0794 152.538 92.2805 152.538 91.295C152.538 90.3096 151.797 89.5107 150.883 89.5107Z" fill="#242A45"/>
</g>
<path d="M69.236 104.976C74.1109 104.976 78.0628 100.715 78.0628 95.4597C78.0628 90.204 74.1109 85.9434 69.236 85.9434C64.3611 85.9434 60.4092 90.204 60.4092 95.4597C60.4092 100.715 64.3611 104.976 69.236 104.976Z" fill="#F98E5D"/>
<path opacity="0.25" d="M263.977 79.9951H218.74C217.826 79.9951 217.085 80.794 217.085 81.7794C217.085 82.7649 217.826 83.5637 218.74 83.5637H263.977C264.891 83.5637 265.632 82.7649 265.632 81.7794C265.632 80.794 264.891 79.9951 263.977 79.9951Z" fill="#242A45"/>
<path opacity="0.25" d="M263.977 91.8896H218.74C217.826 91.8896 217.085 92.6885 217.085 93.674C217.085 94.6594 217.826 95.4583 218.74 95.4583H263.977C264.891 95.4583 265.632 94.6594 265.632 93.674C265.632 92.6885 264.891 91.8896 263.977 91.8896Z" fill="#242A45"/>
<path opacity="0.25" d="M263.977 103.785H218.74C217.826 103.785 217.085 104.584 217.085 105.569C217.085 106.555 217.826 107.354 218.74 107.354H263.977C264.891 107.354 265.632 106.555 265.632 105.569C265.632 104.584 264.891 103.785 263.977 103.785Z" fill="#242A45"/>
<path opacity="0.25" d="M263.977 115.681H218.74C217.826 115.681 217.085 116.48 217.085 117.465C217.085 118.45 217.826 119.249 218.74 119.249H263.977C264.891 119.249 265.632 118.45 265.632 117.465C265.632 116.48 264.891 115.681 263.977 115.681Z" fill="#242A45"/>
<path opacity="0.25" d="M263.977 135.902H218.74C217.826 135.902 217.085 136.701 217.085 137.687C217.085 138.672 217.826 139.471 218.74 139.471H263.977C264.891 139.471 265.632 138.672 265.632 137.687C265.632 136.701 264.891 135.902 263.977 135.902Z" fill="#242A45"/>
<path opacity="0.25" d="M263.977 147.799H218.74C217.826 147.799 217.085 148.598 217.085 149.583C217.085 150.569 217.826 151.367 218.74 151.367H263.977C264.891 151.367 265.632 150.569 265.632 149.583C265.632 148.598 264.891 147.799 263.977 147.799Z" fill="#242A45"/>
<path opacity="0.25" d="M263.977 159.694H218.74C217.826 159.694 217.085 160.493 217.085 161.479C217.085 162.464 217.826 163.263 218.74 163.263H263.977C264.891 163.263 265.632 162.464 265.632 161.479C265.632 160.493 264.891 159.694 263.977 159.694Z" fill="#242A45"/>
<path opacity="0.25" d="M119.989 97.8379H87.9919C87.0779 97.8379 86.3369 98.6368 86.3369 99.6222C86.3369 100.608 87.0779 101.407 87.9919 101.407H119.989C120.903 101.407 121.644 100.608 121.644 99.6222C121.644 98.6368 120.903 97.8379 119.989 97.8379Z" fill="#242A45"/>
<path d="M69.236 138.284C74.1109 138.284 78.0628 134.023 78.0628 128.767C78.0628 123.512 74.1109 119.251 69.236 119.251C64.3611 119.251 60.4092 123.512 60.4092 128.767C60.4092 134.023 64.3611 138.284 69.236 138.284Z" fill="#6AC6D6"/>
<path opacity="0.5" d="M150.883 122.82H87.9919C87.0779 122.82 86.3369 123.619 86.3369 124.605C86.3369 125.59 87.0779 126.389 87.9919 126.389H150.883C151.797 126.389 152.538 125.59 152.538 124.605C152.538 123.619 151.797 122.82 150.883 122.82Z" fill="#242A45"/>
<path opacity="0.25" d="M119.989 131.146H87.9919C87.0779 131.146 86.3369 131.944 86.3369 132.93C86.3369 133.915 87.0779 134.714 87.9919 134.714H119.989C120.903 134.714 121.644 133.915 121.644 132.93C121.644 131.944 120.903 131.146 119.989 131.146Z" fill="#242A45"/>
<path d="M69.236 171.59C74.1109 171.59 78.0628 167.33 78.0628 162.074C78.0628 156.818 74.1109 152.558 69.236 152.558C64.3611 152.558 60.4092 156.818 60.4092 162.074C60.4092 167.33 64.3611 171.59 69.236 171.59Z" fill="#A47ED4"/>
<path opacity="0.5" d="M150.883 156.127H87.9919C87.0779 156.127 86.3369 156.926 86.3369 157.911C86.3369 158.897 87.0779 159.696 87.9919 159.696H150.883C151.797 159.696 152.538 158.897 152.538 157.911C152.538 156.926 151.797 156.127 150.883 156.127Z" fill="#242A45"/>
<path opacity="0.25" d="M119.989 164.452H87.9919C87.0779 164.452 86.3369 165.251 86.3369 166.236C86.3369 167.222 87.0779 168.021 87.9919 168.021H119.989C120.903 168.021 121.644 167.222 121.644 166.236C121.644 165.251 120.903 164.452 119.989 164.452Z" fill="#242A45"/>
<path d="M69.236 204.898C74.1109 204.898 78.0628 200.637 78.0628 195.382C78.0628 190.126 74.1109 185.865 69.236 185.865C64.3611 185.865 60.4092 190.126 60.4092 195.382C60.4092 200.637 64.3611 204.898 69.236 204.898Z" fill="#EC7878"/>
<path opacity="0.5" d="M150.883 189.435H87.9919C87.0779 189.435 86.3369 190.233 86.3369 191.219C86.3369 192.204 87.0779 193.003 87.9919 193.003H150.883C151.797 193.003 152.538 192.204 152.538 191.219C152.538 190.233 151.797 189.435 150.883 189.435Z" fill="#242A45"/>
<path opacity="0.25" d="M119.989 197.76H87.9919C87.0779 197.76 86.3369 198.559 86.3369 199.544C86.3369 200.53 87.0779 201.328 87.9919 201.328H119.989C120.903 201.328 121.644 200.53 121.644 199.544C121.644 198.559 120.903 197.76 119.989 197.76Z" fill="#242A45"/>
</g>
</g>
<defs>
<filter id="filter0_d_571_203" x="-4" y="-2" width="326.868" height="236.986" filterUnits="userSpaceOnUse" color-interpolation-filters="sRGB">
<feFlood flood-opacity="0" result="BackgroundImageFix"/>
<feColorMatrix in="SourceAlpha" type="matrix" values="0 0 0 0 0 0 0 0 0 0 0 0 0 0 0 0 0 0 127 0" result="hardAlpha"/>
<feOffset dy="2"/>
<feGaussianBlur stdDeviation="2"/>
<feColorMatrix type="matrix" values="0 0 0 0 0 0 0 0 0 0 0 0 0 0 0 0 0 0 0.5 0"/>
<feBlend mode="normal" in2="BackgroundImageFix" result="effect1_dropShadow_571_203"/>
<feBlend mode="normal" in="SourceGraphic" in2="effect1_dropShadow_571_203" result="shape"/>
</filter>
<filter id="filter1_d_571_203" x="-40" y="-10" width="398.868" height="308.986" filterUnits="userSpaceOnUse" color-interpolation-filters="sRGB">
<feFlood flood-opacity="0" result="BackgroundImageFix"/>
<feColorMatrix in="SourceAlpha" type="matrix" values="0 0 0 0 0 0 0 0 0 0 0 0 0 0 0 0 0 0 127 0" result="hardAlpha"/>
<feOffset dy="30"/>
<feGaussianBlur stdDeviation="20"/>
<feColorMatrix type="matrix" values="0 0 0 0 0.182433 0 0 0 0 0.230633 0 0 0 0 0.506058 0 0 0 0.20012 0"/>
<feBlend mode="normal" in2="BackgroundImageFix" result="effect1_dropShadow_571_203"/>
<feBlend mode="normal" in="SourceGraphic" in2="effect1_dropShadow_571_203" result="shape"/>
</filter>
<linearGradient id="paint0_linear_571_203" x1="31367.3" y1="16280.1" x2="4900.21" y2="-45.14" gradientUnits="userSpaceOnUse">
<stop stop-color="#151515"/>
<stop offset="1" stop-color="#3D3D3D"/>
</linearGradient>
<clipPath id="clip0_571_203">
<rect width="345.011" height="270.841" fill="white"/>
</clipPath>
</defs>
</svg>
