<svg width="347" height="276" viewBox="0 0 347 276" fill="none" xmlns="http://www.w3.org/2000/svg">
<g clip-path="url(#clip0_571_128)">
<path d="M290.615 235.525C290.615 257.617 272.707 275.525 250.615 275.525H3.05176e-05V222.486H290.615V235.525Z" fill="#4D61D1"/>
<rect width="35.2029" height="172.377" transform="translate(0 51.2891)" fill="#4D61D1"/>
<g filter="url(#filter0_d_571_128)">
<g filter="url(#filter1_d_571_128)">
<path d="M332.774 0.459961H44.9572C37.1 0.459961 30.7305 7.47594 30.7305 16.1306V216.835C30.7305 225.49 37.1 232.506 44.9572 232.506H332.774C340.632 232.506 347.001 225.49 347.001 216.835V16.1306C347.001 7.47594 340.632 0.459961 332.774 0.459961Z" fill="black"/>
</g>
<path d="M332.774 0.459961H44.9572C37.1 0.459961 30.7305 7.47594 30.7305 16.1306V216.835C30.7305 225.49 37.1 232.506 44.9572 232.506H332.774C340.632 232.506 347.001 225.49 347.001 216.835V16.1306C347.001 7.47594 340.632 0.459961 332.774 0.459961Z" fill="#777777"/>
<path d="M332.351 1.66504H45.5028C37.9478 1.66504 31.8232 8.41117 31.8232 16.733V216.753C31.8232 225.075 37.9478 231.821 45.5028 231.821H332.351C339.906 231.821 346.031 225.075 346.031 216.753V16.733C346.031 8.41117 339.906 1.66504 332.351 1.66504Z" fill="url(#paint0_linear_571_128)"/>
<path opacity="0.1" d="M315.536 10.2861H63.0318C61.5208 10.2861 60.2959 11.6354 60.2959 13.2997V220.487C60.2959 222.152 61.5208 223.501 63.0318 223.501H315.536C317.047 223.501 318.271 222.152 318.271 220.487V13.2997C318.271 11.6354 317.047 10.2861 315.536 10.2861Z" fill="#2A2A2A"/>
<path d="M331.151 12.0947H46.6167C44.1991 12.0947 42.2393 14.2535 42.2393 16.9165V215.813C42.2393 218.476 44.1991 220.635 46.6167 220.635H331.151C333.568 220.635 335.528 218.476 335.528 215.813V16.9165C335.528 14.2535 333.568 12.0947 331.151 12.0947Z" fill="#E8EAF6"/>
<mask id="mask0_571_128" style="mask-type:luminance" maskUnits="userSpaceOnUse" x="42" y="12" width="294" height="209">
<path d="M331.151 12.0938H46.6167C44.1991 12.0938 42.2393 14.2525 42.2393 16.9155V215.812C42.2393 218.475 44.1991 220.634 46.6167 220.634H331.151C333.568 220.634 335.528 218.475 335.528 215.812V16.9155C335.528 14.2525 333.568 12.0938 331.151 12.0938Z" fill="white"/>
</mask>
<g mask="url(#mask0_571_128)">
<path fill-rule="evenodd" clip-rule="evenodd" d="M40.3057 12.2139H339.614V47.7742H40.3057V12.2139Z" fill="#5267DF"/>
<path opacity="0.245" d="M63.2901 39.9403C68.1252 39.9403 72.0449 35.6227 72.0449 30.2968C72.0449 24.9708 68.1252 20.6533 63.2901 20.6533C58.4549 20.6533 54.5352 24.9708 54.5352 30.2968C54.5352 35.6227 58.4549 39.9403 63.2901 39.9403Z" fill="white"/>
<path opacity="0.104" d="M315.54 39.9403C320.375 39.9403 324.295 35.6227 324.295 30.2968C324.295 24.9708 320.375 20.6533 315.54 20.6533C310.705 20.6533 306.785 24.9708 306.785 30.2968C306.785 35.6227 310.705 39.9403 315.54 39.9403Z" fill="white"/>
<path opacity="0.75" d="M144.273 24.2676H81.8945C80.9879 24.2676 80.2529 25.0771 80.2529 26.0757C80.2529 27.0743 80.9879 27.8839 81.8945 27.8839H144.273C145.18 27.8839 145.915 27.0743 145.915 26.0757C145.915 25.0771 145.18 24.2676 144.273 24.2676Z" fill="white"/>
<path opacity="0.25" d="M113.631 32.707H81.8945C80.9879 32.707 80.2529 33.5166 80.2529 34.5152C80.2529 35.5138 80.9879 36.3233 81.8945 36.3233H113.631C114.538 36.3233 115.273 35.5138 115.273 34.5152C115.273 33.5166 114.538 32.707 113.631 32.707Z" fill="white"/>
</g>
<mask id="mask1_571_128" style="mask-type:luminance" maskUnits="userSpaceOnUse" x="42" y="12" width="294" height="209">
<path d="M331.151 12.0938H46.6167C44.1991 12.0938 42.2393 14.2525 42.2393 16.9155V215.812C42.2393 218.475 44.1991 220.634 46.6167 220.634H331.151C333.568 220.634 335.528 218.475 335.528 215.812V16.9155C335.528 14.2525 333.568 12.0938 331.151 12.0938Z" fill="white"/>
</mask>
<g mask="url(#mask1_571_128)">
<path d="M211.865 68.1475H77.8052C75.3876 68.1475 73.4277 70.3062 73.4277 72.9692V253.784C73.4277 256.447 75.3876 258.606 77.8052 258.606H211.865C214.282 258.606 216.242 256.447 216.242 253.784V72.9692C216.242 70.3062 214.282 68.1475 211.865 68.1475Z" fill="white"/>
<path d="M300.508 68.1475H239.224C236.807 68.1475 234.847 70.3062 234.847 72.9692V253.784C234.847 256.447 236.807 258.606 239.224 258.606H300.508C302.926 258.606 304.886 256.447 304.886 253.784V72.9692C304.886 70.3062 302.926 68.1475 300.508 68.1475Z" fill="white"/>
<path opacity="0.5" d="M180.383 91.1699H118.005C117.098 91.1699 116.363 91.9795 116.363 92.9781C116.363 93.9767 117.098 94.7862 118.005 94.7862H180.383C181.29 94.7862 182.025 93.9767 182.025 92.9781C182.025 91.9795 181.29 91.1699 180.383 91.1699Z" fill="#242A45"/>
</g>
<path d="M99.3994 106.84C104.235 106.84 108.154 102.522 108.154 97.1962C108.154 91.8703 104.235 87.5527 99.3994 87.5527C94.5642 87.5527 90.6445 91.8703 90.6445 97.1962C90.6445 102.522 94.5642 106.84 99.3994 106.84Z" fill="#F98E5D"/>
<path opacity="0.25" d="M292.554 81.5254H247.685C246.779 81.5254 246.044 82.3349 246.044 83.3335C246.044 84.3322 246.779 85.1417 247.685 85.1417H292.554C293.461 85.1417 294.196 84.3322 294.196 83.3335C294.196 82.3349 293.461 81.5254 292.554 81.5254Z" fill="#242A45"/>
<path opacity="0.25" d="M292.554 93.5791H247.685C246.779 93.5791 246.044 94.3886 246.044 95.3873C246.044 96.3859 246.779 97.1954 247.685 97.1954H292.554C293.461 97.1954 294.196 96.3859 294.196 95.3873C294.196 94.3886 293.461 93.5791 292.554 93.5791Z" fill="#242A45"/>
<path opacity="0.25" d="M292.554 105.633H247.685C246.779 105.633 246.044 106.442 246.044 107.441C246.044 108.44 246.779 109.249 247.685 109.249H292.554C293.461 109.249 294.196 108.44 294.196 107.441C294.196 106.442 293.461 105.633 292.554 105.633Z" fill="#242A45"/>
<path opacity="0.25" d="M292.554 117.689H247.685C246.779 117.689 246.044 118.499 246.044 119.498C246.044 120.496 246.779 121.306 247.685 121.306H292.554C293.461 121.306 294.196 120.496 294.196 119.498C294.196 118.499 293.461 117.689 292.554 117.689Z" fill="#242A45"/>
<path opacity="0.25" d="M292.554 138.179H247.685C246.779 138.179 246.044 138.988 246.044 139.987C246.044 140.985 246.779 141.795 247.685 141.795H292.554C293.461 141.795 294.196 140.985 294.196 139.987C294.196 138.988 293.461 138.179 292.554 138.179Z" fill="#242A45"/>
<path opacity="0.25" d="M292.554 150.235H247.685C246.779 150.235 246.044 151.045 246.044 152.044C246.044 153.042 246.779 153.852 247.685 153.852H292.554C293.461 153.852 294.196 153.042 294.196 152.044C294.196 151.045 293.461 150.235 292.554 150.235Z" fill="#242A45"/>
<path opacity="0.25" d="M292.554 162.29H247.685C246.779 162.29 246.044 163.1 246.044 164.098C246.044 165.097 246.779 165.906 247.685 165.906H292.554C293.461 165.906 294.196 165.097 294.196 164.098C294.196 163.1 293.461 162.29 292.554 162.29Z" fill="#242A45"/>
<path opacity="0.25" d="M149.739 99.6064H118.003C117.096 99.6064 116.361 100.416 116.361 101.415C116.361 102.413 117.096 103.223 118.003 103.223H149.739C150.646 103.223 151.381 102.413 151.381 101.415C151.381 100.416 150.646 99.6064 149.739 99.6064Z" fill="#242A45"/>
<path d="M99.3994 140.592C104.235 140.592 108.154 136.274 108.154 130.948C108.154 125.622 104.235 121.305 99.3994 121.305C94.5642 121.305 90.6445 125.622 90.6445 130.948C90.6445 136.274 94.5642 140.592 99.3994 140.592Z" fill="#6AC6D6"/>
<path opacity="0.5" d="M180.382 124.922H118.003C117.096 124.922 116.361 125.731 116.361 126.73C116.361 127.729 117.096 128.538 118.003 128.538H180.382C181.288 128.538 182.023 127.729 182.023 126.73C182.023 125.731 181.288 124.922 180.382 124.922Z" fill="#242A45"/>
<path opacity="0.25" d="M149.739 133.358H118.003C117.096 133.358 116.361 134.168 116.361 135.167C116.361 136.165 117.096 136.975 118.003 136.975H149.739C150.646 136.975 151.381 136.165 151.381 135.167C151.381 134.168 150.646 133.358 149.739 133.358Z" fill="#242A45"/>
<path d="M99.3994 174.343C104.235 174.343 108.154 170.025 108.154 164.699C108.154 159.373 104.235 155.056 99.3994 155.056C94.5642 155.056 90.6445 159.373 90.6445 164.699C90.6445 170.025 94.5642 174.343 99.3994 174.343Z" fill="#A47ED4"/>
<path opacity="0.5" d="M180.382 158.673H118.003C117.096 158.673 116.361 159.482 116.361 160.481C116.361 161.48 117.096 162.289 118.003 162.289H180.382C181.288 162.289 182.023 161.48 182.023 160.481C182.023 159.482 181.288 158.673 180.382 158.673Z" fill="#242A45"/>
<path opacity="0.25" d="M149.739 167.109H118.003C117.096 167.109 116.361 167.919 116.361 168.918C116.361 169.916 117.096 170.726 118.003 170.726H149.739C150.646 170.726 151.381 169.916 151.381 168.918C151.381 167.919 150.646 167.109 149.739 167.109Z" fill="#242A45"/>
<path d="M99.3994 208.096C104.235 208.096 108.154 203.778 108.154 198.452C108.154 193.126 104.235 188.809 99.3994 188.809C94.5642 188.809 90.6445 193.126 90.6445 198.452C90.6445 203.778 94.5642 208.096 99.3994 208.096Z" fill="#EC7878"/>
<path opacity="0.5" d="M180.382 192.426H118.003C117.096 192.426 116.361 193.235 116.361 194.234C116.361 195.233 117.096 196.042 118.003 196.042H180.382C181.288 196.042 182.023 195.233 182.023 194.234C182.023 193.235 181.288 192.426 180.382 192.426Z" fill="#242A45"/>
<path opacity="0.25" d="M149.739 200.862H118.003C117.096 200.862 116.361 201.672 116.361 202.67C116.361 203.669 117.096 204.479 118.003 204.479H149.739C150.646 204.479 151.381 203.669 151.381 202.67C151.381 201.672 150.646 200.862 149.739 200.862Z" fill="#242A45"/>
</g>
</g>
<defs>
<filter id="filter0_d_571_128" x="26.7305" y="-1.54004" width="324.271" height="240.046" filterUnits="userSpaceOnUse" color-interpolation-filters="sRGB">
<feFlood flood-opacity="0" result="BackgroundImageFix"/>
<feColorMatrix in="SourceAlpha" type="matrix" values="0 0 0 0 0 0 0 0 0 0 0 0 0 0 0 0 0 0 127 0" result="hardAlpha"/>
<feOffset dy="2"/>
<feGaussianBlur stdDeviation="2"/>
<feColorMatrix type="matrix" values="0 0 0 0 0 0 0 0 0 0 0 0 0 0 0 0 0 0 0.5 0"/>
<feBlend mode="normal" in2="BackgroundImageFix" result="effect1_dropShadow_571_128"/>
<feBlend mode="normal" in="SourceGraphic" in2="effect1_dropShadow_571_128" result="shape"/>
</filter>
<filter id="filter1_d_571_128" x="-9.26953" y="-9.54004" width="396.271" height="312.046" filterUnits="userSpaceOnUse" color-interpolation-filters="sRGB">
<feFlood flood-opacity="0" result="BackgroundImageFix"/>
<feColorMatrix in="SourceAlpha" type="matrix" values="0 0 0 0 0 0 0 0 0 0 0 0 0 0 0 0 0 0 127 0" result="hardAlpha"/>
<feOffset dy="30"/>
<feGaussianBlur stdDeviation="20"/>
<feColorMatrix type="matrix" values="0 0 0 0 0.182433 0 0 0 0 0.230633 0 0 0 0 0.506058 0 0 0 0.20012 0"/>
<feBlend mode="normal" in2="BackgroundImageFix" result="effect1_dropShadow_571_128"/>
<feBlend mode="normal" in="SourceGraphic" in2="effect1_dropShadow_571_128" result="shape"/>
</filter>
<linearGradient id="paint0_linear_571_128" x1="31142.5" y1="16498.1" x2="4583.59" y2="463.939" gradientUnits="userSpaceOnUse">
<stop stop-color="#151515"/>
<stop offset="1" stop-color="#3D3D3D"/>
</linearGradient>
<clipPath id="clip0_571_128">
<rect width="347.001" height="275.065" fill="white" transform="translate(0 0.459961)"/>
</clipPath>
</defs>
</svg>
