<svg width="696" height="478" viewBox="0 0 696 478" fill="none" xmlns="http://www.w3.org/2000/svg">
<g clip-path="url(#clip0_612_361)">
<path d="M0 127H641V127C641 320.852 483.852 478 290 478H0V127Z" fill="#5266DF"/>
<g clip-path="url(#clip1_612_361)">
<path d="M688 0H168C163.582 0 160 3.58172 160 8V338C160 342.418 163.582 346 168 346H688C692.418 346 696 342.418 696 338V8C696 3.58172 692.418 0 688 0Z" fill="#E8EAF6"/>
<mask id="mask0_612_361" style="mask-type:luminance" maskUnits="userSpaceOnUse" x="160" y="0" width="536" height="346">
<path d="M688 0H168C163.582 0 160 3.58172 160 8V338C160 342.418 163.582 346 168 346H688C692.418 346 696 342.418 696 338V8C696 3.58172 692.418 0 688 0Z" fill="white"/>
</mask>
<g mask="url(#mask0_612_361)">
<path fill-rule="evenodd" clip-rule="evenodd" d="M156.47 0.197266H703.47V59.1973H156.47V0.197266Z" fill="#242A45"/>
<path opacity="0.245" d="M198.47 46.1973C207.306 46.1973 214.47 39.0338 214.47 30.1973C214.47 21.3607 207.306 14.1973 198.47 14.1973C189.633 14.1973 182.47 21.3607 182.47 30.1973C182.47 39.0338 189.633 46.1973 198.47 46.1973Z" fill="white"/>
<path opacity="0.104" d="M659.47 46.1973C668.306 46.1973 675.47 39.0338 675.47 30.1973C675.47 21.3607 668.306 14.1973 659.47 14.1973C650.633 14.1973 643.47 21.3607 643.47 30.1973C643.47 39.0338 650.633 46.1973 659.47 46.1973Z" fill="white"/>
<path opacity="0.75" d="M346.47 20.1973H232.47C230.813 20.1973 229.47 21.5404 229.47 23.1973C229.47 24.8541 230.813 26.1973 232.47 26.1973H346.47C348.127 26.1973 349.47 24.8541 349.47 23.1973C349.47 21.5404 348.127 20.1973 346.47 20.1973Z" fill="white"/>
<path opacity="0.25" d="M290.47 34.1973H232.47C230.813 34.1973 229.47 35.5404 229.47 37.1973C229.47 38.8541 230.813 40.1973 232.47 40.1973H290.47C292.127 40.1973 293.47 38.8541 293.47 37.1973C293.47 35.5404 292.127 34.1973 290.47 34.1973Z" fill="white"/>
</g>
<mask id="mask1_612_361" style="mask-type:luminance" maskUnits="userSpaceOnUse" x="160" y="0" width="536" height="346">
<path d="M688 0H168C163.582 0 160 3.58172 160 8V338C160 342.418 163.582 346 168 346H688C692.418 346 696 342.418 696 338V8C696 3.58172 692.418 0 688 0Z" fill="white"/>
</mask>
<g mask="url(#mask1_612_361)">
<path d="M470 93H225C220.582 93 217 96.5817 217 101V401C217 405.418 220.582 409 225 409H470C474.418 409 478 405.418 478 401V101C478 96.5817 474.418 93 470 93Z" fill="white"/>
<path d="M632 93H520C515.582 93 512 96.5817 512 101V401C512 405.418 515.582 409 520 409H632C636.418 409 640 405.418 640 401V101C640 96.5817 636.418 93 632 93Z" fill="white"/>
<path opacity="0.5" d="M412.47 131.197H298.47C296.813 131.197 295.47 132.54 295.47 134.197C295.47 135.854 296.813 137.197 298.47 137.197H412.47C414.127 137.197 415.47 135.854 415.47 134.197C415.47 132.54 414.127 131.197 412.47 131.197Z" fill="#242A45"/>
</g>
<path d="M264.47 157.197C273.306 157.197 280.47 150.034 280.47 141.197C280.47 132.361 273.306 125.197 264.47 125.197C255.633 125.197 248.47 132.361 248.47 141.197C248.47 150.034 255.633 157.197 264.47 157.197Z" fill="#F98E5D"/>
<path opacity="0.25" d="M617.47 115.197H535.47C533.813 115.197 532.47 116.54 532.47 118.197C532.47 119.854 533.813 121.197 535.47 121.197H617.47C619.127 121.197 620.47 119.854 620.47 118.197C620.47 116.54 619.127 115.197 617.47 115.197Z" fill="#242A45"/>
<path opacity="0.25" d="M617.47 135.197H535.47C533.813 135.197 532.47 136.54 532.47 138.197C532.47 139.854 533.813 141.197 535.47 141.197H617.47C619.127 141.197 620.47 139.854 620.47 138.197C620.47 136.54 619.127 135.197 617.47 135.197Z" fill="#242A45"/>
<path opacity="0.25" d="M617.47 155.197H535.47C533.813 155.197 532.47 156.54 532.47 158.197C532.47 159.854 533.813 161.197 535.47 161.197H617.47C619.127 161.197 620.47 159.854 620.47 158.197C620.47 156.54 619.127 155.197 617.47 155.197Z" fill="#242A45"/>
<path opacity="0.25" d="M617.47 175.197H535.47C533.813 175.197 532.47 176.54 532.47 178.197C532.47 179.854 533.813 181.197 535.47 181.197H617.47C619.127 181.197 620.47 179.854 620.47 178.197C620.47 176.54 619.127 175.197 617.47 175.197Z" fill="#242A45"/>
<path opacity="0.25" d="M617.47 209.197H535.47C533.813 209.197 532.47 210.54 532.47 212.197C532.47 213.854 533.813 215.197 535.47 215.197H617.47C619.127 215.197 620.47 213.854 620.47 212.197C620.47 210.54 619.127 209.197 617.47 209.197Z" fill="#242A45"/>
<path opacity="0.25" d="M617.47 229.197H535.47C533.813 229.197 532.47 230.54 532.47 232.197C532.47 233.854 533.813 235.197 535.47 235.197H617.47C619.127 235.197 620.47 233.854 620.47 232.197C620.47 230.54 619.127 229.197 617.47 229.197Z" fill="#242A45"/>
<path opacity="0.25" d="M617.47 249.197H535.47C533.813 249.197 532.47 250.54 532.47 252.197C532.47 253.854 533.813 255.197 535.47 255.197H617.47C619.127 255.197 620.47 253.854 620.47 252.197C620.47 250.54 619.127 249.197 617.47 249.197Z" fill="#242A45"/>
<path opacity="0.25" d="M356.47 145.197H298.47C296.813 145.197 295.47 146.54 295.47 148.197C295.47 149.854 296.813 151.197 298.47 151.197H356.47C358.127 151.197 359.47 149.854 359.47 148.197C359.47 146.54 358.127 145.197 356.47 145.197Z" fill="#242A45"/>
<path d="M264.47 213.197C273.306 213.197 280.47 206.034 280.47 197.197C280.47 188.361 273.306 181.197 264.47 181.197C255.633 181.197 248.47 188.361 248.47 197.197C248.47 206.034 255.633 213.197 264.47 213.197Z" fill="#6AC6D6"/>
<path opacity="0.5" d="M412.47 187.197H298.47C296.813 187.197 295.47 188.54 295.47 190.197C295.47 191.854 296.813 193.197 298.47 193.197H412.47C414.127 193.197 415.47 191.854 415.47 190.197C415.47 188.54 414.127 187.197 412.47 187.197Z" fill="#242A45"/>
<path opacity="0.25" d="M356.47 201.197H298.47C296.813 201.197 295.47 202.54 295.47 204.197C295.47 205.854 296.813 207.197 298.47 207.197H356.47C358.127 207.197 359.47 205.854 359.47 204.197C359.47 202.54 358.127 201.197 356.47 201.197Z" fill="#242A45"/>
<path d="M264.47 269.197C273.306 269.197 280.47 262.034 280.47 253.197C280.47 244.361 273.306 237.197 264.47 237.197C255.633 237.197 248.47 244.361 248.47 253.197C248.47 262.034 255.633 269.197 264.47 269.197Z" fill="#A47ED4"/>
<path opacity="0.5" d="M412.47 243.197H298.47C296.813 243.197 295.47 244.54 295.47 246.197C295.47 247.854 296.813 249.197 298.47 249.197H412.47C414.127 249.197 415.47 247.854 415.47 246.197C415.47 244.54 414.127 243.197 412.47 243.197Z" fill="#242A45"/>
<path opacity="0.25" d="M356.47 257.197H298.47C296.813 257.197 295.47 258.54 295.47 260.197C295.47 261.854 296.813 263.197 298.47 263.197H356.47C358.127 263.197 359.47 261.854 359.47 260.197C359.47 258.54 358.127 257.197 356.47 257.197Z" fill="#242A45"/>
<path d="M264.47 325.197C273.306 325.197 280.47 318.034 280.47 309.197C280.47 300.361 273.306 293.197 264.47 293.197C255.633 293.197 248.47 300.361 248.47 309.197C248.47 318.034 255.633 325.197 264.47 325.197Z" fill="#EC7878"/>
<path opacity="0.5" d="M412.47 299.197H298.47C296.813 299.197 295.47 300.54 295.47 302.197C295.47 303.854 296.813 305.197 298.47 305.197H412.47C414.127 305.197 415.47 303.854 415.47 302.197C415.47 300.54 414.127 299.197 412.47 299.197Z" fill="#242A45"/>
<path opacity="0.25" d="M356.47 313.197H298.47C296.813 313.197 295.47 314.54 295.47 316.197C295.47 317.854 296.813 319.197 298.47 319.197H356.47C358.127 319.197 359.47 317.854 359.47 316.197C359.47 314.54 358.127 313.197 356.47 313.197Z" fill="#242A45"/>
</g>
</g>
<defs>
<clipPath id="clip0_612_361">
<rect width="696" height="478" fill="white"/>
</clipPath>
<clipPath id="clip1_612_361">
<rect width="536" height="346" fill="white" transform="translate(160)"/>
</clipPath>
</defs>
</svg>
