<svg width="703" height="605" viewBox="0 0 703 605" fill="none" xmlns="http://www.w3.org/2000/svg">
<g clip-path="url(#clip0_612_365)">
<path d="M0 254H641V254C641 447.852 483.852 605 290 605H0V254Z" fill="#5266DF"/>
<path d="M548.506 0H169.088C164.069 0 160 4.07249 160 9.09615V384.313C160 389.336 164.069 393.409 169.088 393.409H548.506C553.525 393.409 557.594 389.336 557.594 384.313V9.09615C557.594 4.07249 553.525 0 548.506 0Z" fill="#E8EAF6"/>
<mask id="mask0_612_365" style="mask-type:luminance" maskUnits="userSpaceOnUse" x="160" y="0" width="398" height="394">
<path d="M548.506 0H169.088C164.069 0 160 4.07249 160 9.09615V384.313C160 389.336 164.069 393.409 169.088 393.409H548.506C553.525 393.409 557.594 389.336 557.594 384.313V9.09615C557.594 4.07249 553.525 0 548.506 0Z" fill="white"/>
</mask>
<g mask="url(#mask0_612_365)">
<path fill-rule="evenodd" clip-rule="evenodd" d="M155.99 0.224609H777.373V67.3087H155.99V0.224609Z" fill="#242A45"/>
<path opacity="0.245" d="M203.701 52.5272C213.739 52.5272 221.877 44.3822 221.877 34.3349C221.877 24.2876 213.739 16.1426 203.701 16.1426C193.663 16.1426 185.525 24.2876 185.525 34.3349C185.525 44.3822 193.663 52.5272 203.701 52.5272Z" fill="white"/>
<path opacity="0.75" d="M371.827 22.9648H242.325C240.443 22.9648 238.917 24.492 238.917 26.3759C238.917 28.2598 240.443 29.787 242.325 29.787H371.827C373.709 29.787 375.235 28.2598 375.235 26.3759C375.235 24.492 373.709 22.9648 371.827 22.9648Z" fill="white"/>
<path opacity="0.25" d="M308.212 38.8828H242.325C240.443 38.8828 238.917 40.41 238.917 42.2939C238.917 44.1777 240.443 45.7049 242.325 45.7049H308.212C310.094 45.7049 311.62 44.1777 311.62 42.2939C311.62 40.41 310.094 38.8828 308.212 38.8828Z" fill="white"/>
</g>
<g filter="url(#filter0_d_612_365)">
<path d="M408.781 156.908H199.76C194.741 156.908 190.672 160.981 190.672 166.004V437.752C190.672 442.776 194.741 446.848 199.76 446.848H408.781C413.8 446.848 417.869 442.776 417.869 437.752V166.004C417.869 160.981 413.8 156.908 408.781 156.908Z" fill="black"/>
</g>
<path d="M408.781 156.908H199.76C194.741 156.908 190.672 160.981 190.672 166.004V437.752C190.672 442.776 194.741 446.848 199.76 446.848H408.781C413.8 446.848 417.869 442.776 417.869 437.752V166.004C417.869 160.981 413.8 156.908 408.781 156.908Z" fill="white"/>
<path opacity="0.5" d="M380.382 196.703H272.103C270.221 196.703 268.695 198.23 268.695 200.114C268.695 201.998 270.221 203.525 272.103 203.525H380.382C382.264 203.525 383.79 201.998 383.79 200.114C383.79 198.23 382.264 196.703 380.382 196.703Z" fill="#242A45"/>
<path d="M234.976 226.265C245.014 226.265 253.151 218.121 253.151 208.073C253.151 198.026 245.014 189.881 234.976 189.881C224.937 189.881 216.8 198.026 216.8 208.073C216.8 218.121 224.937 226.265 234.976 226.265Z" fill="#5267DF"/>
<path opacity="0.25" d="M326.671 212.621H272.103C270.221 212.621 268.695 214.148 268.695 216.032C268.695 217.916 270.221 219.443 272.103 219.443H326.671C328.554 219.443 330.079 217.916 330.079 216.032C330.079 214.148 328.554 212.621 326.671 212.621Z" fill="#242A45"/>
<path d="M234.976 289.939C245.014 289.939 253.151 281.794 253.151 271.747C253.151 261.7 245.014 253.555 234.976 253.555C224.937 253.555 216.8 261.7 216.8 271.747C216.8 281.794 224.937 289.939 234.976 289.939Z" fill="#5267DF"/>
<path opacity="0.5" d="M380.382 260.377H272.103C270.221 260.377 268.695 261.904 268.695 263.788C268.695 265.672 270.221 267.199 272.103 267.199H380.382C382.264 267.199 383.79 265.672 383.79 263.788C383.79 261.904 382.264 260.377 380.382 260.377Z" fill="#242A45"/>
<path opacity="0.25" d="M326.671 276.295H272.103C270.221 276.295 268.695 277.822 268.695 279.706C268.695 281.59 270.221 283.117 272.103 283.117H326.671C328.554 283.117 330.079 281.59 330.079 279.706C330.079 277.822 328.554 276.295 326.671 276.295Z" fill="#242A45"/>
<path d="M234.976 353.611C245.014 353.611 253.151 345.466 253.151 335.419C253.151 325.372 245.014 317.227 234.976 317.227C224.937 317.227 216.8 325.372 216.8 335.419C216.8 345.466 224.937 353.611 234.976 353.611Z" fill="#5267DF"/>
<path opacity="0.5" d="M380.382 324.049H272.103C270.221 324.049 268.695 325.576 268.695 327.46C268.695 329.344 270.221 330.871 272.103 330.871H380.382C382.264 330.871 383.79 329.344 383.79 327.46C383.79 325.576 382.264 324.049 380.382 324.049Z" fill="#242A45"/>
<path opacity="0.25" d="M326.671 339.967H272.103C270.221 339.967 268.695 341.494 268.695 343.378C268.695 345.262 270.221 346.789 272.103 346.789H326.671C328.554 346.789 330.079 345.262 330.079 343.378C330.079 341.494 328.554 339.967 326.671 339.967Z" fill="#242A45"/>
<path d="M234.976 417.285C245.014 417.285 253.151 409.14 253.151 399.093C253.151 389.045 245.014 380.9 234.976 380.9C224.937 380.9 216.8 389.045 216.8 399.093C216.8 409.14 224.937 417.285 234.976 417.285Z" fill="#5267DF"/>
<path opacity="0.5" d="M380.382 387.723H272.103C270.221 387.723 268.695 389.25 268.695 391.134C268.695 393.018 270.221 394.545 272.103 394.545H380.382C382.264 394.545 383.79 393.018 383.79 391.134C383.79 389.25 382.264 387.723 380.382 387.723Z" fill="#242A45"/>
<path opacity="0.25" d="M326.671 403.641H272.103C270.221 403.641 268.695 405.168 268.695 407.052C268.695 408.936 270.221 410.463 272.103 410.463H326.671C328.554 410.463 330.079 408.936 330.079 407.052C330.079 405.168 328.554 403.641 326.671 403.641Z" fill="#242A45"/>
<g filter="url(#filter1_d_612_365)">
<g filter="url(#filter2_d_612_365)">
<path d="M663.241 156.908H454.22C449.201 156.908 445.132 160.981 445.132 166.004V437.752C445.132 442.776 449.201 446.848 454.22 446.848H663.241C668.26 446.848 672.328 442.776 672.328 437.752V166.004C672.328 160.981 668.26 156.908 663.241 156.908Z" fill="black"/>
</g>
<path d="M663.241 156.908H454.22C449.201 156.908 445.132 160.981 445.132 166.004V437.752C445.132 442.776 449.201 446.848 454.22 446.848H663.241C668.26 446.848 672.328 442.776 672.328 437.752V166.004C672.328 160.981 668.26 156.908 663.241 156.908Z" fill="white"/>
<path opacity="0.5" d="M634.842 196.703H526.563C524.681 196.703 523.155 198.23 523.155 200.114C523.155 201.998 524.681 203.525 526.563 203.525H634.842C636.724 203.525 638.25 201.998 638.25 200.114C638.25 198.23 636.724 196.703 634.842 196.703Z" fill="#242A45"/>
<path d="M489.435 226.265C499.474 226.265 507.611 218.121 507.611 208.073C507.611 198.026 499.474 189.881 489.435 189.881C479.397 189.881 471.26 198.026 471.26 208.073C471.26 218.121 479.397 226.265 489.435 226.265Z" fill="#5267DF"/>
<path opacity="0.25" d="M581.131 212.621H526.563C524.681 212.621 523.155 214.148 523.155 216.032C523.155 217.916 524.681 219.443 526.563 219.443H581.131C583.013 219.443 584.539 217.916 584.539 216.032C584.539 214.148 583.013 212.621 581.131 212.621Z" fill="#242A45"/>
<path d="M489.435 289.939C499.474 289.939 507.611 281.794 507.611 271.747C507.611 261.7 499.474 253.555 489.435 253.555C479.397 253.555 471.26 261.7 471.26 271.747C471.26 281.794 479.397 289.939 489.435 289.939Z" fill="#FA5959"/>
<path opacity="0.5" d="M634.842 260.377H526.563C524.681 260.377 523.155 261.904 523.155 263.788C523.155 265.672 524.681 267.199 526.563 267.199H634.842C636.724 267.199 638.25 265.672 638.25 263.788C638.25 261.904 636.724 260.377 634.842 260.377Z" fill="#242A45"/>
<path opacity="0.25" d="M581.131 276.295H526.563C524.681 276.295 523.155 277.822 523.155 279.706C523.155 281.59 524.681 283.117 526.563 283.117H581.131C583.013 283.117 584.539 281.59 584.539 279.706C584.539 277.822 583.013 276.295 581.131 276.295Z" fill="#242A45"/>
<path d="M489.435 353.611C499.474 353.611 507.611 345.466 507.611 335.419C507.611 325.372 499.474 317.227 489.435 317.227C479.397 317.227 471.26 325.372 471.26 335.419C471.26 345.466 479.397 353.611 489.435 353.611Z" fill="#5267DF"/>
<path opacity="0.5" d="M634.842 324.049H526.563C524.681 324.049 523.155 325.576 523.155 327.46C523.155 329.344 524.681 330.871 526.563 330.871H634.842C636.724 330.871 638.25 329.344 638.25 327.46C638.25 325.576 636.724 324.049 634.842 324.049Z" fill="#242A45"/>
<path opacity="0.25" d="M581.131 339.967H526.563C524.681 339.967 523.155 341.494 523.155 343.378C523.155 345.262 524.681 346.789 526.563 346.789H581.131C583.013 346.789 584.539 345.262 584.539 343.378C584.539 341.494 583.013 339.967 581.131 339.967Z" fill="#242A45"/>
<path d="M489.435 417.285C499.474 417.285 507.611 409.14 507.611 399.093C507.611 389.045 499.474 380.9 489.435 380.9C479.397 380.9 471.26 389.045 471.26 399.093C471.26 409.14 479.397 417.285 489.435 417.285Z" fill="#5267DF"/>
<path opacity="0.5" d="M634.842 387.723H526.563C524.681 387.723 523.155 389.25 523.155 391.134C523.155 393.018 524.681 394.545 526.563 394.545H634.842C636.724 394.545 638.25 393.018 638.25 391.134C638.25 389.25 636.724 387.723 634.842 387.723Z" fill="#242A45"/>
<path opacity="0.25" d="M581.131 403.641H526.563C524.681 403.641 523.155 405.168 523.155 407.052C523.155 408.936 524.681 410.463 526.563 410.463H581.131C583.013 410.463 584.539 408.936 584.539 407.052C584.539 405.168 583.013 403.641 581.131 403.641Z" fill="#242A45"/>
</g>
<path d="M450.812 96.6465H199.76C194.741 96.6465 190.672 100.719 190.672 105.743V126.209C190.672 131.233 194.741 135.305 199.76 135.305H450.812C455.831 135.305 459.9 131.233 459.9 126.209V105.743C459.9 100.719 455.831 96.6465 450.812 96.6465Z" fill="white"/>
<path d="M582.585 268.337C624.62 268.337 658.696 234.23 658.696 192.157C658.696 150.084 624.62 115.977 582.585 115.977C540.551 115.977 506.475 150.084 506.475 192.157C506.475 234.23 540.551 268.337 582.585 268.337Z" fill="#495DCF" fill-opacity="0.2" stroke="#5267DF" stroke-width="20"/>
<path d="M635.977 246.734L691.64 302.448" stroke="#5267DF" stroke-width="20" stroke-linecap="round" stroke-linejoin="round"/>
</g>
<defs>
<filter id="filter0_d_612_365" x="180.672" y="151.908" width="247.196" height="309.939" filterUnits="userSpaceOnUse" color-interpolation-filters="sRGB">
<feFlood flood-opacity="0" result="BackgroundImageFix"/>
<feColorMatrix in="SourceAlpha" type="matrix" values="0 0 0 0 0 0 0 0 0 0 0 0 0 0 0 0 0 0 127 0" result="hardAlpha"/>
<feOffset dy="5"/>
<feGaussianBlur stdDeviation="5"/>
<feColorMatrix type="matrix" values="0 0 0 0 0.285333 0 0 0 0 0.363695 0 0 0 0 0.811481 0 0 0 0.0830693 0"/>
<feBlend mode="normal" in2="BackgroundImageFix" result="effect1_dropShadow_612_365"/>
<feBlend mode="normal" in="SourceGraphic" in2="effect1_dropShadow_612_365" result="shape"/>
</filter>
<filter id="filter1_d_612_365" x="435.132" y="151.908" width="247.196" height="309.939" filterUnits="userSpaceOnUse" color-interpolation-filters="sRGB">
<feFlood flood-opacity="0" result="BackgroundImageFix"/>
<feColorMatrix in="SourceAlpha" type="matrix" values="0 0 0 0 0 0 0 0 0 0 0 0 0 0 0 0 0 0 127 0" result="hardAlpha"/>
<feOffset dy="5"/>
<feGaussianBlur stdDeviation="5"/>
<feColorMatrix type="matrix" values="0 0 0 0 0.285333 0 0 0 0 0.363695 0 0 0 0 0.811481 0 0 0 0.0830693 0"/>
<feBlend mode="normal" in2="BackgroundImageFix" result="effect1_dropShadow_612_365"/>
<feBlend mode="normal" in="SourceGraphic" in2="effect1_dropShadow_612_365" result="shape"/>
</filter>
<filter id="filter2_d_612_365" x="435.132" y="151.908" width="247.196" height="309.939" filterUnits="userSpaceOnUse" color-interpolation-filters="sRGB">
<feFlood flood-opacity="0" result="BackgroundImageFix"/>
<feColorMatrix in="SourceAlpha" type="matrix" values="0 0 0 0 0 0 0 0 0 0 0 0 0 0 0 0 0 0 127 0" result="hardAlpha"/>
<feOffset dy="5"/>
<feGaussianBlur stdDeviation="5"/>
<feColorMatrix type="matrix" values="0 0 0 0 0.285333 0 0 0 0 0.363695 0 0 0 0 0.811481 0 0 0 0.0830693 0"/>
<feBlend mode="normal" in2="BackgroundImageFix" result="effect1_dropShadow_612_365"/>
<feBlend mode="normal" in="SourceGraphic" in2="effect1_dropShadow_612_365" result="shape"/>
</filter>
<clipPath id="clip0_612_365">
<rect width="703" height="605" fill="white"/>
</clipPath>
</defs>
</svg>
