<svg width="703" height="601" viewBox="0 0 703 601" fill="none" xmlns="http://www.w3.org/2000/svg">
<g clip-path="url(#clip0_612_362)">
<path d="M0 250H641V250C641 443.852 483.852 601 290 601H0V250Z" fill="#5266DF"/>
<g clip-path="url(#clip1_612_362)">
<path d="M582.059 0H169.873C164.42 0 160 4.4206 160 9.87368V417.163C160 422.616 164.42 427.037 169.873 427.037H582.059C587.512 427.037 591.932 422.616 591.932 417.163V9.87368C591.932 4.4206 587.512 0 582.059 0Z" fill="#E8EAF6"/>
<mask id="mask0_612_362" style="mask-type:luminance" maskUnits="userSpaceOnUse" x="160" y="0" width="432" height="428">
<path d="M582.059 0H169.873C164.42 0 160 4.4206 160 9.87368V417.163C160 422.616 164.42 427.037 169.873 427.037H582.059C587.512 427.037 591.932 422.616 591.932 417.163V9.87368C591.932 4.4206 587.512 0 582.059 0Z" fill="white"/>
</mask>
<g mask="url(#mask0_612_362)">
<path fill-rule="evenodd" clip-rule="evenodd" d="M155.644 0.242188H830.691V73.0606H155.644V0.242188Z" fill="#242A45"/>
<path opacity="0.245" d="M207.475 57.0162C218.38 57.0162 227.22 48.175 227.22 37.2689C227.22 26.3627 218.38 17.5215 207.475 17.5215C196.57 17.5215 187.729 26.3627 187.729 37.2689C187.729 48.175 196.57 57.0162 207.475 57.0162Z" fill="white"/>
<path opacity="0.75" d="M390.12 24.9258H249.434C247.389 24.9258 245.731 26.5835 245.731 28.6284C245.731 30.6733 247.389 32.331 249.434 32.331H390.12C392.165 32.331 393.822 30.6733 393.822 28.6284C393.822 26.5835 392.165 24.9258 390.12 24.9258Z" fill="white"/>
<path opacity="0.25" d="M321.011 42.2051H249.434C247.389 42.2051 245.731 43.8628 245.731 45.9077C245.731 47.9526 247.389 49.6103 249.434 49.6103H321.011C323.056 49.6103 324.713 47.9526 324.713 45.9077C324.713 43.8628 323.056 42.2051 321.011 42.2051Z" fill="white"/>
</g>
<path d="M475.927 104.908H203.193C197.74 104.908 193.32 109.329 193.32 114.782V136.998C193.32 142.451 197.74 146.871 203.193 146.871H475.927C481.38 146.871 485.8 142.451 485.8 136.998V114.782C485.8 109.329 481.38 104.908 475.927 104.908Z" fill="white"/>
<path d="M475.927 164.15H203.193C197.74 164.15 193.32 168.571 193.32 174.024V196.24C193.32 201.693 197.74 206.114 203.193 206.114H475.927C481.38 206.114 485.8 201.693 485.8 196.24V174.024C485.8 168.571 481.38 164.15 475.927 164.15Z" fill="white"/>
<path d="M475.927 223.393H203.193C197.74 223.393 193.32 227.813 193.32 233.266V255.482C193.32 260.935 197.74 265.356 203.193 265.356H475.927C481.38 265.356 485.8 260.935 485.8 255.482V233.266C485.8 227.813 481.38 223.393 475.927 223.393Z" fill="white"/>
<path d="M475.927 282.635H203.193C197.74 282.635 193.32 287.055 193.32 292.508V314.724C193.32 320.177 197.74 324.598 203.193 324.598H475.927C481.38 324.598 485.8 320.177 485.8 314.724V292.508C485.8 287.055 481.38 282.635 475.927 282.635Z" fill="white"/>
<path d="M475.927 341.877H203.193C197.74 341.877 193.32 346.298 193.32 351.751V373.966C193.32 379.42 197.74 383.84 203.193 383.84H475.927C481.38 383.84 485.8 379.42 485.8 373.966V351.751C485.8 346.298 481.38 341.877 475.927 341.877Z" fill="white"/>
<mask id="mask1_612_362" style="mask-type:luminance" maskUnits="userSpaceOnUse" x="271" y="102" width="432" height="366">
<path d="M703 102.498H271.338V467.765H703V102.498Z" fill="white"/>
</mask>
<g mask="url(#mask1_612_362)">
<path fill-rule="evenodd" clip-rule="evenodd" d="M272.664 411.411C273.49 413.902 274.78 416.346 276.581 418.736C307.682 460.05 423.901 473.822 538.484 465.407C598.308 461.011 640.507 435.137 667.176 411.41C672.959 406.268 678.463 400.821 683.664 395.091C689.426 388.741 693.923 381.688 697.128 374.239C706.565 352.298 704.747 326.949 690.806 306.159C678.987 288.54 662.765 275.521 654.384 261.057C638.425 233.512 722.798 163.881 667.892 119.888C648.512 104.357 607.224 100.773 562.178 103.182C507.349 106.117 446.957 117.937 413.736 127.922C344.982 148.579 301.952 178.5 292.13 212.164C282.309 245.828 308.557 261.061 331.473 293.195C353.063 323.465 259.213 370.947 272.664 411.411Z" fill="#3A499E"/>
</g>
<path fill-rule="evenodd" clip-rule="evenodd" d="M388.863 214.593L409.824 211.049L412.988 230.548L387.072 238.201L388.863 214.593Z" fill="#306299"/>
<path fill-rule="evenodd" clip-rule="evenodd" d="M410.52 212.43C410.52 212.43 426.781 212 443.841 204.879L435.824 220.003L412.681 227.095L410.52 212.43Z" fill="#FA9E89"/>
<mask id="mask2_612_362" style="mask-type:luminance" maskUnits="userSpaceOnUse" x="505" y="104" width="196" height="273">
<path d="M700.532 104.967H505.762V376.301H700.532V104.967Z" fill="white"/>
</mask>
<g mask="url(#mask2_612_362)">
<path opacity="0.152" fill-rule="evenodd" clip-rule="evenodd" d="M506.699 169.316C516.71 218.88 686.883 294.823 695.065 376.3C703.85 354.391 702.158 329.082 689.179 308.322C678.178 290.729 663.078 277.73 655.277 263.287C640.42 235.787 718.962 166.256 667.852 122.331C649.811 106.823 611.379 103.244 569.446 105.65C556.681 108.568 497.666 124.572 506.699 169.316Z" fill="white"/>
</g>
<path opacity="0.149" fill-rule="evenodd" clip-rule="evenodd" d="M268.822 402.352C267.606 412.06 271.71 418.811 273.314 421.145C300.994 461.469 451.633 474.911 553.613 466.697C606.859 462.407 650.495 434.959 677.084 404.715L268.822 402.352Z" fill="black"/>
<path opacity="0.128" fill-rule="evenodd" clip-rule="evenodd" d="M612.137 407.056C612.137 407.056 624.573 407.809 624.382 411.574C624.191 415.338 616.347 423.617 616.347 423.617L628.082 419.415L663.509 418.066L659.683 421.36C659.683 421.36 631.142 422.677 629.867 423.68C628.591 424.683 612.264 436.98 609.459 437.481C606.653 437.983 428.433 437.759 428.433 437.759C428.433 437.759 410.097 438.486 407.035 432.839C403.975 427.194 392.878 427.569 389.816 432.463C386.755 437.356 387.18 455.423 387.18 455.423C387.18 455.423 378.797 453.234 378.336 453.039C349.255 440.743 316.729 402.352 316.729 402.352L612.137 407.056Z" fill="black"/>
<path fill-rule="evenodd" clip-rule="evenodd" d="M649.934 358.778L632.102 419.455C632.102 419.455 629.565 422.471 627.721 419.677L639.709 357.92L649.934 358.778ZM674.451 356.686L683.255 397.585L679.063 402.351L667.212 357.863L674.451 356.686Z" fill="#162F44"/>
<path fill-rule="evenodd" clip-rule="evenodd" d="M412.38 370.364L404.945 412.574L403.712 419.57L406.417 419.968L406.61 419.997L412.518 420.865C412.518 420.865 432.228 372.306 433.905 360.652C435.585 348.997 402.874 302.381 402.874 302.381L367.372 305.402C366.433 315.546 380.631 334.667 393.321 349.55C403.318 361.274 412.38 370.364 412.38 370.364Z" fill="#F4F2F9"/>
<path fill-rule="evenodd" clip-rule="evenodd" d="M411.902 368.454L403.416 417.534L406.064 417.931L406.154 418.396L406.253 417.961C407.333 413.234 420.001 371.386 420.386 362.856C420.796 353.815 403.075 325.83 403.075 325.83L393.243 347.693C403.029 359.386 411.902 368.452 411.902 368.452" fill="#E0DFEA"/>
<path fill-rule="evenodd" clip-rule="evenodd" d="M364.859 307.318L400.237 304.372L401.882 245.467C401.882 245.467 393.243 214.752 383.781 214.752C378.163 214.752 372.692 216.978 369.343 222.398C367.056 226.104 365.76 231.309 366.093 238.314C366.846 254.084 365.192 298.676 364.9 306.223C364.875 306.935 364.859 307.318 364.859 307.318Z" fill="#6397D9"/>
<path fill-rule="evenodd" clip-rule="evenodd" d="M374.59 302.722L373.926 232.596L382.137 215.91L372.556 214.752L369.189 218.714C366.98 222.42 365.729 227.625 366.052 234.628C366.778 250.393 365.142 296.069 364.859 303.615L374.59 302.722Z" fill="#8BBFF7"/>
<path fill-rule="evenodd" clip-rule="evenodd" d="M374.732 234.5L400.669 283.868L401.343 261.664L401.882 243.647L380.256 234.5H374.732Z" fill="#306299"/>
<path fill-rule="evenodd" clip-rule="evenodd" d="M440.967 435.676H599.744C605.654 435.676 610.444 430.852 610.444 424.901V152.708C610.444 146.757 605.654 141.934 599.744 141.934H440.965C435.055 141.934 430.265 146.757 430.265 152.708V424.901C430.265 430.852 435.055 435.676 440.965 435.676" fill="white"/>
<path fill-rule="evenodd" clip-rule="evenodd" d="M440.138 180.553V289.682C440.138 291.925 441.935 293.742 444.153 293.742H596.556C598.773 293.742 600.57 291.925 600.57 289.682V180.553C600.57 178.309 598.773 176.492 596.556 176.492H444.153C441.935 176.492 440.138 178.309 440.138 180.553Z" fill="#E4DCF1"/>
<path fill-rule="evenodd" clip-rule="evenodd" d="M519.302 206.113L521.217 207.573L525.291 225.31L525.203 228.232L518.753 228.329C518.315 228.335 517.873 228.249 517.482 228.021C515.637 226.937 514.849 223.917 515.867 221.241C516.415 219.802 517.819 217.254 517.981 216.129C518.369 213.433 519.302 206.113 519.302 206.113Z" fill="#8E2B43"/>
<path fill-rule="evenodd" clip-rule="evenodd" d="M485.8 297.443L552.717 297.186L554.932 297.179C554.932 297.179 562.938 259.352 549.976 244.773C546.819 241.226 542.716 238.611 538.245 236.911C524.333 231.608 506.833 235.116 503.082 246.743C498.126 262.11 485.8 297.443 485.8 297.443Z" fill="#4EC9B4"/>
<path fill-rule="evenodd" clip-rule="evenodd" d="M537.83 237.571C537.83 237.571 535.096 245.009 529.064 246.574C523.032 248.14 516.119 242.595 516.686 236.136C516.686 236.136 522.466 235.288 523.408 232.483C524.553 229.076 523.786 228.96 523.786 228.96C523.786 228.96 521.524 224.653 520.769 221.523C520.015 218.392 521.146 206.256 526.424 205.083C529.762 204.34 535.096 205.475 538.866 210.954C538.866 210.954 536.981 221.523 534.342 226.612C531.702 231.7 530.383 234.049 537.83 237.571Z" fill="#FA9E89"/>
<path opacity="0.184" fill-rule="evenodd" clip-rule="evenodd" d="M444.047 143.184L607.975 373.026V425.164C607.975 430.97 603.408 435.676 597.777 435.676H449.484C442.959 435.676 437.67 430.223 437.67 423.495V147.891C437.67 144.276 440.546 143.008 444.047 143.184Z" fill="#F4F2F9"/>
<path fill-rule="evenodd" clip-rule="evenodd" d="M493.204 274.539L484.588 236.967L470.99 239.208L484.175 293.74L493.204 274.539Z" fill="#4EC9B4"/>
<path fill-rule="evenodd" clip-rule="evenodd" d="M481.851 235.902L481.111 232.069C481.111 232.069 483.332 230.607 482.962 228.417C482.592 226.226 483.332 221.114 483.332 221.114C483.332 221.114 482.151 220.315 481.388 221.753C480.845 222.776 480 225.131 480 225.131C480 225.131 477.167 217.521 476.512 215.517C476.235 214.664 475.955 213.336 475.309 213.538C474.97 213.644 475.093 214.421 475.151 215.18C475.324 217.456 476.296 221.084 476.296 221.084L475.803 221.373L473.751 214.861C473.66 214.545 473.512 214.067 473.18 214.041C472.887 214.016 472.594 214.176 472.594 214.907C472.594 216.368 474.168 222.407 474.168 222.407L473.774 222.678L471.386 217.398C471.222 216.999 470.63 217.034 470.528 217.452C470.448 217.783 470.472 218.254 470.742 218.923C471.482 220.75 472.223 223.67 472.223 223.67L472.038 223.883L470.742 221.205C470.51 220.777 469.941 220.502 469.776 220.958C469.544 221.598 471.575 227.092 471.575 227.459C471.575 227.824 472.964 232.798 474.445 233.163C475.926 233.529 476.019 236.967 476.019 236.967L481.851 235.902Z" fill="#FA9E89"/>
<path fill-rule="evenodd" clip-rule="evenodd" d="M567.683 325.831H595.202C596.804 325.831 598.104 324.508 598.104 322.876V318.912C598.104 317.28 596.804 315.957 595.202 315.957H567.684C566.083 315.957 564.783 317.28 564.783 318.912V322.876C564.783 324.508 566.081 325.831 567.683 325.831ZM528.194 325.831H555.711C557.313 325.831 558.613 324.508 558.613 322.876V318.912C558.613 317.28 557.313 315.957 555.711 315.957H528.194C526.592 315.957 525.292 317.28 525.292 318.912V322.876C525.292 324.508 526.592 325.831 528.194 325.831ZM486.234 325.831H513.752C515.354 325.831 516.654 324.508 516.654 322.876V318.912C516.654 317.28 515.354 315.957 513.752 315.957H486.236C484.633 315.957 483.333 317.28 483.333 318.912V322.876C483.333 324.508 484.631 325.831 486.234 325.831ZM446.745 325.831H474.261C475.863 325.831 477.163 324.508 477.163 322.876V318.912C477.163 317.28 475.863 315.957 474.261 315.957H446.744C445.142 315.957 443.842 317.28 443.842 318.912V322.876C443.842 324.508 445.143 325.831 446.745 325.831Z" fill="#FFDEDD"/>
<path fill-rule="evenodd" clip-rule="evenodd" d="M449.453 349.28H594.959C596.696 349.28 598.103 347.947 598.103 346.305V342.381C598.103 340.739 596.696 339.406 594.959 339.406H449.453C447.716 339.406 446.309 340.739 446.309 342.381V346.305C446.309 347.947 447.716 349.28 449.453 349.28ZM594.959 369.027C596.696 369.027 598.103 367.694 598.103 366.053V362.128C598.103 360.487 596.696 359.154 594.959 359.154H449.453C447.716 359.154 446.309 360.487 446.309 362.128V366.053C446.309 367.694 447.716 369.027 449.453 369.027H594.959ZM449.453 388.775H594.959C596.696 388.775 598.103 387.442 598.103 385.8V381.875C598.103 380.234 596.696 378.901 594.959 378.901H449.453C447.716 378.901 446.309 380.234 446.309 381.875V385.8C446.309 387.442 447.716 388.775 449.453 388.775ZM449.453 404.819H594.959C596.696 404.819 598.103 403.486 598.103 401.845V397.92C598.103 396.279 596.696 394.946 594.959 394.946H449.453C447.716 394.946 446.309 396.279 446.309 397.92V401.845C446.309 403.486 447.716 404.819 449.453 404.819Z" fill="#F4F2F9"/>
<path fill-rule="evenodd" clip-rule="evenodd" d="M541.608 201.571C541.608 201.571 533.833 190.651 519.16 196.974C504.489 203.295 520.415 213.641 520.415 213.641C520.415 213.641 520.728 209.617 523.048 208.468L522.86 212.044L531.074 213.481L532.39 210.033L533.237 213.96L537.375 215.492C537.375 215.492 533.99 227.37 532.014 229.094C532.014 229.094 531.168 231.871 531.45 232.446C531.731 233.021 544.24 236.182 545.84 233.309C547.439 230.436 544.146 226.412 543.112 223.73C542.078 221.048 544.993 206.808 541.607 201.571" fill="#FC516B"/>
<path fill-rule="evenodd" clip-rule="evenodd" d="M577.557 171.554H598.902C600.505 171.554 601.805 169.896 601.805 167.851C601.805 165.806 600.505 164.148 598.902 164.148H577.557C575.954 164.148 574.655 165.806 574.655 167.851C574.655 169.896 575.954 171.554 577.557 171.554Z" fill="#E4DCF1"/>
<path fill-rule="evenodd" clip-rule="evenodd" d="M545.036 260.417C545.036 260.417 541.749 284.22 537.989 293.74H518.17C518.17 293.74 514.902 283.696 530.569 280.411C541.466 278.126 545.036 260.417 545.036 260.417ZM506.025 254.246C506.025 254.246 502.002 266.588 502.757 270.29C503.51 273.993 506.779 276.708 506.779 279.177C506.779 281.645 504.768 291.025 504.768 291.025L493.204 291.272C493.204 291.272 495.125 290.944 499.49 287.508C506.151 282.262 500.432 270.692 501.847 264.119C502.587 260.671 506.025 254.246 506.025 254.246ZM493.204 273.712C493.204 273.712 492.941 284.058 490.841 282.466C488.741 280.874 490.054 265.487 488.216 260.181C486.377 254.874 480.863 237.895 480.863 237.895L485.59 236.967L493.204 273.712Z" fill="#44AD99"/>
<path fill-rule="evenodd" clip-rule="evenodd" d="M461.887 226.446C461.887 226.446 459.942 227.3 457.568 230.205C456.783 231.168 452.594 232.699 451.603 233.893C437.232 251.197 418.041 264.552 405.741 259.235C390.031 252.444 387.073 246.13 387.073 246.13L397.456 232.107C397.456 232.107 409.381 250.323 418.972 245.361C428.563 240.4 447.469 227.395 447.469 227.395L447.97 219.417C447.97 219.417 449.075 219.121 449.604 220.645C450.135 222.17 450.159 223.489 450.159 223.489L457.624 214.819C457.624 214.819 459.058 214.375 458.622 215.769C458.185 217.163 455.547 221.16 455.547 221.16C455.547 221.16 455.276 221.92 455.847 221.573C456.514 221.169 461.729 215.288 461.729 215.288C461.729 215.288 462.93 215.209 462.44 216.357C462.061 217.242 458.904 221.405 457.837 222.965C457.518 223.429 458.185 223.255 458.185 223.255L462.499 219.59C463.083 219.196 463.688 219.327 463.573 220.044C463.48 220.612 462.305 221.919 461.607 222.437C459.862 223.728 458.645 226.08 458.645 226.08L462.402 224.723C462.402 224.723 463.136 225.374 461.887 226.446ZM373.498 180.798L378.249 215.751L393.855 218.454C393.855 218.454 393.065 217.63 392.162 216.529C391.239 215.409 390.2 213.999 389.74 212.868C388.691 210.271 388.683 207.85 388.683 207.85C388.683 207.85 395.604 208.631 396.676 204.647C397.753 200.658 395.266 182.081 395.266 182.081C395.266 182.081 392.177 170.406 373.498 180.798Z" fill="#FA9E89"/>
<path fill-rule="evenodd" clip-rule="evenodd" d="M386.595 181.197C386.595 181.197 394.291 187.01 401.675 182.058C401.675 182.058 396.995 181.626 395.539 179.259C395.539 179.259 398.451 180.012 401.882 175.169C401.882 175.169 395.851 176.03 393.771 174.2C391.691 172.37 381.085 169.463 374.742 173.876C368.397 178.29 368.501 181.52 368.501 181.52C368.501 181.52 364.758 182.918 364.86 185.072C364.965 187.224 374.116 204.879 374.116 204.879L376.092 197.02C376.092 197.02 374.532 197.487 373.596 193.828C372.661 190.167 376.716 191.745 377.132 192.499C377.548 193.252 380.252 187.332 380.252 187.332L379.836 183.888C379.836 183.888 378.483 179.472 386.595 181.197Z" fill="#261F27"/>
<path fill-rule="evenodd" clip-rule="evenodd" d="M371.999 344.818C376.431 362.698 368.235 434.186 368.235 434.186L376.254 435.675C408.538 361.604 401.153 301.146 401.153 301.146L364.859 304.126C364.859 304.126 364.951 302.615 364.989 302.973C365.407 306.686 367.961 328.508 371.999 344.818Z" fill="white"/>
<path fill-rule="evenodd" clip-rule="evenodd" d="M412.088 416.021L421.409 423.253C421.409 423.253 425.08 422.81 425.787 424.507C426.493 426.204 426.563 428.123 426.563 428.123L416.819 428.27L400.648 421.851L403.19 414.693L412.088 416.021ZM375.287 437.329C375.287 437.329 378.584 442.663 381.908 447.02C383.025 448.484 385.755 449.119 386.817 452.691C387.73 455.764 385.904 457.891 385.904 457.891C385.904 457.891 379.777 456.787 375.514 453.007C371.253 449.225 364.859 441.977 364.859 441.977L366.609 435.675L375.286 437.329H375.287Z" fill="#6397D9"/>
<path fill-rule="evenodd" clip-rule="evenodd" d="M621.55 348.046C621.55 352.817 637.573 356.685 657.338 356.685C677.104 356.685 693.127 352.817 693.127 348.046C693.127 343.274 677.104 339.406 657.338 339.406C637.573 339.406 621.55 343.274 621.55 348.046Z" fill="#224A7D"/>
<path fill-rule="evenodd" clip-rule="evenodd" d="M621.55 346.813C621.55 351.585 637.573 355.453 657.338 355.453C677.104 355.453 693.127 351.585 693.127 346.813C693.127 342.042 677.104 338.174 657.338 338.174C637.573 338.174 621.55 342.042 621.55 346.813Z" fill="#6397D9"/>
<path fill-rule="evenodd" clip-rule="evenodd" d="M647.466 341.876C647.466 343.922 654.096 345.579 662.275 345.579C670.453 345.579 677.084 343.922 677.084 341.876C677.084 339.831 670.453 338.174 662.275 338.174C654.096 338.174 647.466 339.831 647.466 341.876ZM693.127 345.579V350.499C693.127 350.499 693.041 353.54 686.956 355.453L688.411 350.123C688.411 350.123 692.685 348.278 693.127 345.579Z" fill="#162F44"/>
<path fill-rule="evenodd" clip-rule="evenodd" d="M621.558 345.578V350.62C621.558 350.62 621.076 353.141 627.721 355.452L625.682 349.57C625.682 349.57 622.152 347.993 621.558 345.578Z" fill="#8CC5F2"/>
<path fill-rule="evenodd" clip-rule="evenodd" d="M644.997 329.58L647.426 339.071C648.028 341.433 650.416 343.11 653.168 343.11H658.392C660.348 343.11 662.125 342.264 663.205 340.922C663.583 340.453 663.873 339.918 664.059 339.345L666.164 332.788L667.211 329.533L644.997 329.58Z" fill="#FC516B"/>
<path fill-rule="evenodd" clip-rule="evenodd" d="M644.997 328.299C644.997 328.98 649.971 329.533 656.104 329.533C662.238 329.533 667.211 328.98 667.211 328.299C667.211 327.617 662.238 327.064 656.104 327.064C649.971 327.064 644.997 327.617 644.997 328.299Z" fill="#9B293F"/>
<path fill-rule="evenodd" clip-rule="evenodd" d="M660.308 341.452C659.871 341.621 659.459 341.765 659.074 341.876L661.678 341.476C662.041 340.971 662.315 340.407 662.488 339.81L664.483 332.888C664.583 332.555 664.743 332.024 664.743 332.002C664.743 332.002 659.541 333.535 654.87 333.012C656.39 333.214 660.189 333.52 662.482 333.406C662.614 333.398 662.746 333.419 662.868 333.467C662.99 333.516 663.101 333.591 663.191 333.687C663.281 333.783 663.349 333.898 663.389 334.024C663.43 334.149 663.442 334.282 663.425 334.412C663.136 336.457 662.308 340.675 660.308 341.452Z" fill="#F995A9"/>
<path fill-rule="evenodd" clip-rule="evenodd" d="M654.87 325.708L655.708 329.518L656.318 329.533C656.318 329.533 656.353 325.708 660.852 323.362C665.357 321.017 664.711 312.254 664.711 312.254L664.707 312.265C664.599 312.491 662.871 316.091 661.562 316.326C660.212 316.575 659.374 318.732 659.374 318.732C659.374 318.732 658.73 319.658 657.958 319.473C657.186 319.288 656.414 321.324 656.414 321.324L656.159 323.486L654.87 325.708Z" fill="#51A595"/>
<path fill-rule="evenodd" clip-rule="evenodd" d="M661.032 333.219C661.032 333.219 661.896 304.294 646.717 296.209C646.717 296.209 642.396 297.878 647.457 304.808C652.517 311.738 648.443 316.743 650.666 318.541C652.887 320.337 656.096 321.492 655.602 323.802C655.108 326.113 655.725 328.423 656.713 328.68C657.7 328.935 659.921 330.299 660.267 333.235L661.032 333.219Z" fill="#4EC9B4"/>
<path fill-rule="evenodd" clip-rule="evenodd" d="M661.041 328.052L661.091 329.518L661.754 329.533C661.754 329.533 661.791 325.708 666.683 323.362C671.58 321.017 670.879 312.254 670.879 312.254L670.874 312.265L670.46 313.583C670.46 321.544 665.865 323.194 664.028 324.257C662.19 325.319 661.041 328.052 661.041 328.052Z" fill="#41877A"/>
<path fill-rule="evenodd" clip-rule="evenodd" d="M389.769 218.585C389.769 218.585 376.747 218.797 375.584 217.221L374.732 219.563C374.732 219.563 385.049 225.188 392.009 222.802L389.769 218.585Z" fill="#306299"/>
<path fill-rule="evenodd" clip-rule="evenodd" d="M408.053 235.63L392.518 253.013C392.518 253.013 371.758 234.398 372.274 228.563C372.789 222.729 380.394 210.649 392.061 221.747C403.413 232.543 408.053 235.63 408.053 235.63Z" fill="#8CC5F2"/>
<path fill-rule="evenodd" clip-rule="evenodd" d="M368.024 435.249L371.191 435.676C371.191 435.676 386.032 383.259 381.15 344.533C379.683 332.889 374.555 303.615 374.555 303.615L364.859 304.525C365.251 308.256 367.768 329.03 371.555 345.423C375.71 363.395 368.026 435.249 368.026 435.249" fill="#F4F2F9"/>
<path fill-rule="evenodd" clip-rule="evenodd" d="M384.917 216.676C386.753 217.076 387.754 217.203 388.307 217.221C387.445 216.029 386.475 214.528 386.046 213.324C385.067 210.558 385.06 207.979 385.06 207.979C385.06 207.979 381.393 207.014 381.016 207.47C380.64 207.924 381.016 215.825 384.917 216.676Z" fill="#E6846F"/>
<path fill-rule="evenodd" clip-rule="evenodd" d="M564.782 220.923C564.782 233.872 574.714 244.373 586.962 244.373C592.091 244.373 596.811 242.532 600.57 239.441V202.405C596.811 199.312 592.092 197.473 586.962 197.473C574.714 197.473 564.782 207.973 564.782 220.923Z" fill="#CEC3E2"/>
<path fill-rule="evenodd" clip-rule="evenodd" d="M564.782 221.54C564.782 234.149 574.029 244.373 585.433 244.373C590.209 244.373 594.603 242.581 598.103 239.572V203.508C594.604 200.5 590.208 198.707 585.433 198.707C574.029 198.707 564.782 208.931 564.782 221.54Z" fill="#C3B8D8"/>
<path fill-rule="evenodd" clip-rule="evenodd" d="M532.696 242.022C532.696 242.022 535.145 240.66 535.532 240.411C535.919 240.166 540.949 241.525 547.658 248.454C554.363 255.382 548.559 261.196 551.395 264.906C554.234 268.618 551.527 276.412 550.106 281.734C548.687 287.054 550.106 293.733 550.106 293.733L550.18 293.74L552.428 293.733C552.428 293.733 560.553 258.104 547.399 244.371C544.195 241.031 540.031 238.566 535.493 236.967L532.696 242.022Z" fill="#44AD99"/>
</g>
</g>
<defs>
<clipPath id="clip0_612_362">
<rect width="703" height="601" fill="white"/>
</clipPath>
<clipPath id="clip1_612_362">
<rect width="543" height="469" fill="white" transform="translate(160)"/>
</clipPath>
</defs>
</svg>
