<svg width="680" height="499" viewBox="0 0 680 499" fill="none" xmlns="http://www.w3.org/2000/svg">
<g clip-path="url(#clip0_593_545)">
<g clip-path="url(#clip1_593_545)">
<rect width="92" height="352" transform="translate(588.5 146.5)" fill="#5664CA"/>
<path d="M182.5 397.5H588.5V498.5H282.5C227.272 498.5 182.5 452.728 182.5 397.5Z" fill="#5664CA"/>
</g>
<g filter="url(#filter0_d_593_545)">
<g filter="url(#filter1_d_593_545)">
<path d="M574 18H48C33.6406 18 22 29.6406 22 44V377C22 391.359 33.6406 403 48 403H574C588.359 403 600 391.359 600 377V44C600 29.6406 588.359 18 574 18Z" fill="black"/>
</g>
<path d="M574 18H48C33.6406 18 22 29.6406 22 44V377C22 391.359 33.6406 403 48 403H574C588.359 403 600 391.359 600 377V44C600 29.6406 588.359 18 574 18Z" fill="#777777"/>
<path d="M573.23 20H49C35.1929 20 24 31.1929 24 45V376.865C24 390.672 35.1929 401.865 49 401.865H573.23C587.037 401.865 598.23 390.672 598.23 376.865V45C598.23 31.1929 587.037 20 573.23 20Z" fill="url(#paint0_linear_593_545)"/>
<path opacity="0.1" d="M542.493 34.3027H81.0303C78.2688 34.3027 76.0303 36.5413 76.0303 39.3027V383.059C76.0303 385.82 78.2688 388.059 81.0303 388.059H542.493C545.255 388.059 547.493 385.82 547.493 383.059V39.3027C547.493 36.5413 545.255 34.3027 542.493 34.3027Z" fill="#2A2A2A"/>
<path d="M571.03 37.3027H51.0303C46.612 37.3027 43.0303 40.8845 43.0303 45.3027V375.303C43.0303 379.721 46.612 383.303 51.0303 383.303H571.03C575.449 383.303 579.03 379.721 579.03 375.303V45.3027C579.03 40.8845 575.449 37.3027 571.03 37.3027Z" fill="#E8EAF6"/>
<mask id="mask0_593_545" style="mask-type:luminance" maskUnits="userSpaceOnUse" x="43" y="37" width="537" height="347">
<path d="M571.03 37.3027H51.0303C46.612 37.3027 43.0303 40.8845 43.0303 45.3027V375.303C43.0303 379.721 46.612 383.303 51.0303 383.303H571.03C575.449 383.303 579.03 379.721 579.03 375.303V45.3027C579.03 40.8845 575.449 37.3027 571.03 37.3027Z" fill="white"/>
</mask>
<g mask="url(#mask0_593_545)">
<path fill-rule="evenodd" clip-rule="evenodd" d="M39.5 37.5H586.5V96.5H39.5V37.5Z" fill="#5267DF"/>
<path opacity="0.245" d="M81.5 83.5C90.3366 83.5 97.5 76.3366 97.5 67.5C97.5 58.6634 90.3366 51.5 81.5 51.5C72.6634 51.5 65.5 58.6634 65.5 67.5C65.5 76.3366 72.6634 83.5 81.5 83.5Z" fill="white"/>
<path opacity="0.104" d="M542.5 83.5C551.337 83.5 558.5 76.3366 558.5 67.5C558.5 58.6634 551.337 51.5 542.5 51.5C533.663 51.5 526.5 58.6634 526.5 67.5C526.5 76.3366 533.663 83.5 542.5 83.5Z" fill="white"/>
<path opacity="0.75" d="M229.5 57.5H115.5C113.843 57.5 112.5 58.8431 112.5 60.5C112.5 62.1569 113.843 63.5 115.5 63.5H229.5C231.157 63.5 232.5 62.1569 232.5 60.5C232.5 58.8431 231.157 57.5 229.5 57.5Z" fill="white"/>
<path opacity="0.25" d="M173.5 71.5H115.5C113.843 71.5 112.5 72.8431 112.5 74.5C112.5 76.1569 113.843 77.5 115.5 77.5H173.5C175.157 77.5 176.5 76.1569 176.5 74.5C176.5 72.8431 175.157 71.5 173.5 71.5Z" fill="white"/>
</g>
<mask id="mask1_593_545" style="mask-type:luminance" maskUnits="userSpaceOnUse" x="43" y="37" width="537" height="347">
<path d="M571.03 37.3027H51.0303C46.612 37.3027 43.0303 40.8845 43.0303 45.3027V375.303C43.0303 379.721 46.612 383.303 51.0303 383.303H571.03C575.449 383.303 579.03 379.721 579.03 375.303V45.3027C579.03 40.8845 575.449 37.3027 571.03 37.3027Z" fill="white"/>
</mask>
<g mask="url(#mask1_593_545)">
<path d="M353.03 130.303H108.03C103.612 130.303 100.03 133.884 100.03 138.303V438.303C100.03 442.721 103.612 446.303 108.03 446.303H353.03C357.449 446.303 361.03 442.721 361.03 438.303V138.303C361.03 133.884 357.449 130.303 353.03 130.303Z" fill="white"/>
<path d="M515.03 130.303H403.03C398.612 130.303 395.03 133.884 395.03 138.303V438.303C395.03 442.721 398.612 446.303 403.03 446.303H515.03C519.449 446.303 523.03 442.721 523.03 438.303V138.303C523.03 133.884 519.449 130.303 515.03 130.303Z" fill="white"/>
<path opacity="0.5" d="M295.5 168.5H181.5C179.843 168.5 178.5 169.843 178.5 171.5C178.5 173.157 179.843 174.5 181.5 174.5H295.5C297.157 174.5 298.5 173.157 298.5 171.5C298.5 169.843 297.157 168.5 295.5 168.5Z" fill="#242A45"/>
</g>
<path d="M147.5 194.5C156.337 194.5 163.5 187.337 163.5 178.5C163.5 169.663 156.337 162.5 147.5 162.5C138.663 162.5 131.5 169.663 131.5 178.5C131.5 187.337 138.663 194.5 147.5 194.5Z" fill="#F98E5D"/>
<path opacity="0.25" d="M500.5 152.5H418.5C416.843 152.5 415.5 153.843 415.5 155.5C415.5 157.157 416.843 158.5 418.5 158.5H500.5C502.157 158.5 503.5 157.157 503.5 155.5C503.5 153.843 502.157 152.5 500.5 152.5Z" fill="#242A45"/>
<path opacity="0.25" d="M500.5 172.5H418.5C416.843 172.5 415.5 173.843 415.5 175.5C415.5 177.157 416.843 178.5 418.5 178.5H500.5C502.157 178.5 503.5 177.157 503.5 175.5C503.5 173.843 502.157 172.5 500.5 172.5Z" fill="#242A45"/>
<path opacity="0.25" d="M500.5 192.5H418.5C416.843 192.5 415.5 193.843 415.5 195.5C415.5 197.157 416.843 198.5 418.5 198.5H500.5C502.157 198.5 503.5 197.157 503.5 195.5C503.5 193.843 502.157 192.5 500.5 192.5Z" fill="#242A45"/>
<path opacity="0.25" d="M500.5 212.5H418.5C416.843 212.5 415.5 213.843 415.5 215.5C415.5 217.157 416.843 218.5 418.5 218.5H500.5C502.157 218.5 503.5 217.157 503.5 215.5C503.5 213.843 502.157 212.5 500.5 212.5Z" fill="#242A45"/>
<path opacity="0.25" d="M500.5 246.5H418.5C416.843 246.5 415.5 247.843 415.5 249.5C415.5 251.157 416.843 252.5 418.5 252.5H500.5C502.157 252.5 503.5 251.157 503.5 249.5C503.5 247.843 502.157 246.5 500.5 246.5Z" fill="#242A45"/>
<path opacity="0.25" d="M500.5 266.5H418.5C416.843 266.5 415.5 267.843 415.5 269.5C415.5 271.157 416.843 272.5 418.5 272.5H500.5C502.157 272.5 503.5 271.157 503.5 269.5C503.5 267.843 502.157 266.5 500.5 266.5Z" fill="#242A45"/>
<path opacity="0.25" d="M500.5 286.5H418.5C416.843 286.5 415.5 287.843 415.5 289.5C415.5 291.157 416.843 292.5 418.5 292.5H500.5C502.157 292.5 503.5 291.157 503.5 289.5C503.5 287.843 502.157 286.5 500.5 286.5Z" fill="#242A45"/>
<path opacity="0.25" d="M239.5 182.5H181.5C179.843 182.5 178.5 183.843 178.5 185.5C178.5 187.157 179.843 188.5 181.5 188.5H239.5C241.157 188.5 242.5 187.157 242.5 185.5C242.5 183.843 241.157 182.5 239.5 182.5Z" fill="#242A45"/>
<path d="M147.5 250.5C156.337 250.5 163.5 243.337 163.5 234.5C163.5 225.663 156.337 218.5 147.5 218.5C138.663 218.5 131.5 225.663 131.5 234.5C131.5 243.337 138.663 250.5 147.5 250.5Z" fill="#6AC6D6"/>
<path opacity="0.5" d="M295.5 224.5H181.5C179.843 224.5 178.5 225.843 178.5 227.5C178.5 229.157 179.843 230.5 181.5 230.5H295.5C297.157 230.5 298.5 229.157 298.5 227.5C298.5 225.843 297.157 224.5 295.5 224.5Z" fill="#242A45"/>
<path opacity="0.25" d="M239.5 238.5H181.5C179.843 238.5 178.5 239.843 178.5 241.5C178.5 243.157 179.843 244.5 181.5 244.5H239.5C241.157 244.5 242.5 243.157 242.5 241.5C242.5 239.843 241.157 238.5 239.5 238.5Z" fill="#242A45"/>
<path d="M147.5 306.5C156.337 306.5 163.5 299.337 163.5 290.5C163.5 281.663 156.337 274.5 147.5 274.5C138.663 274.5 131.5 281.663 131.5 290.5C131.5 299.337 138.663 306.5 147.5 306.5Z" fill="#A47ED4"/>
<path opacity="0.5" d="M295.5 280.5H181.5C179.843 280.5 178.5 281.843 178.5 283.5C178.5 285.157 179.843 286.5 181.5 286.5H295.5C297.157 286.5 298.5 285.157 298.5 283.5C298.5 281.843 297.157 280.5 295.5 280.5Z" fill="#242A45"/>
<path opacity="0.25" d="M239.5 294.5H181.5C179.843 294.5 178.5 295.843 178.5 297.5C178.5 299.157 179.843 300.5 181.5 300.5H239.5C241.157 300.5 242.5 299.157 242.5 297.5C242.5 295.843 241.157 294.5 239.5 294.5Z" fill="#242A45"/>
<path d="M147.5 362.5C156.337 362.5 163.5 355.337 163.5 346.5C163.5 337.663 156.337 330.5 147.5 330.5C138.663 330.5 131.5 337.663 131.5 346.5C131.5 355.337 138.663 362.5 147.5 362.5Z" fill="#EC7878"/>
<path opacity="0.5" d="M295.5 336.5H181.5C179.843 336.5 178.5 337.843 178.5 339.5C178.5 341.157 179.843 342.5 181.5 342.5H295.5C297.157 342.5 298.5 341.157 298.5 339.5C298.5 337.843 297.157 336.5 295.5 336.5Z" fill="#242A45"/>
<path opacity="0.25" d="M239.5 350.5H181.5C179.843 350.5 178.5 351.843 178.5 353.5C178.5 355.157 179.843 356.5 181.5 356.5H239.5C241.157 356.5 242.5 355.157 242.5 353.5C242.5 351.843 241.157 350.5 239.5 350.5Z" fill="#242A45"/>
</g>
</g>
<defs>
<filter id="filter0_d_593_545" x="18" y="16" width="586" height="393" filterUnits="userSpaceOnUse" color-interpolation-filters="sRGB">
<feFlood flood-opacity="0" result="BackgroundImageFix"/>
<feColorMatrix in="SourceAlpha" type="matrix" values="0 0 0 0 0 0 0 0 0 0 0 0 0 0 0 0 0 0 127 0" result="hardAlpha"/>
<feOffset dy="2"/>
<feGaussianBlur stdDeviation="2"/>
<feColorMatrix type="matrix" values="0 0 0 0 0 0 0 0 0 0 0 0 0 0 0 0 0 0 0.5 0"/>
<feBlend mode="normal" in2="BackgroundImageFix" result="effect1_dropShadow_593_545"/>
<feBlend mode="normal" in="SourceGraphic" in2="effect1_dropShadow_593_545" result="shape"/>
</filter>
<filter id="filter1_d_593_545" x="-18" y="8" width="658" height="465" filterUnits="userSpaceOnUse" color-interpolation-filters="sRGB">
<feFlood flood-opacity="0" result="BackgroundImageFix"/>
<feColorMatrix in="SourceAlpha" type="matrix" values="0 0 0 0 0 0 0 0 0 0 0 0 0 0 0 0 0 0 127 0" result="hardAlpha"/>
<feOffset dy="30"/>
<feGaussianBlur stdDeviation="20"/>
<feColorMatrix type="matrix" values="0 0 0 0 0.182433 0 0 0 0 0.230633 0 0 0 0 0.506058 0 0 0 0.20012 0"/>
<feBlend mode="normal" in2="BackgroundImageFix" result="effect1_dropShadow_593_545"/>
<feBlend mode="normal" in="SourceGraphic" in2="effect1_dropShadow_593_545" result="shape"/>
</filter>
<linearGradient id="paint0_linear_593_545" x1="56880.2" y1="27390.2" x2="10958.9" y2="-3147.35" gradientUnits="userSpaceOnUse">
<stop stop-color="#151515"/>
<stop offset="1" stop-color="#3D3D3D"/>
</linearGradient>
<clipPath id="clip0_593_545">
<rect width="680.5" height="498.5" fill="white"/>
</clipPath>
<clipPath id="clip1_593_545">
<rect width="498" height="352" fill="white" transform="translate(182.5 146.5)"/>
</clipPath>
</defs>
</svg>
